<?xml version="1.0" ?><!DOCTYPE svg  PUBLIC '-//W3C//DTD SVG 1.1//EN'  'http://www.w3.org/Graphics/SVG/1.1/DTD/svg11.dtd'><svg width="50" height="50" enable-background="new 0 0 128 128" id="Слой_1" version="1.1" viewBox="0 0 128 128" xml:space="preserve" xmlns="http://www.w3.org/2000/svg" xmlns:xlink="http://www.w3.org/1999/xlink"><g><path d="M118.5,37l-4,0V27h-4v10l-4,0V23.5l-10-18V2h-49v3.5l-10,18V37l-4,0V27H16.7L5.5,38.2V71h24v26.2   c-7,1-12.5,7-12.5,14.3c0,8,6.5,14.5,14.5,14.5S46,119.5,46,111.5c0-7.3-5.5-13.4-12.5-14.3V81h77v43h4V41l4,0v18h4V19h-4V37z    M41.5,24.5l10-18V6h41v0.5l10,18V37l-61,0V24.5z M41.5,41l61,0v19.2c0,1.3-0.9,2.5-2.2,2.9l-1.6,0.4C90.4,65.8,81.9,67,73.3,67   h-2.8c-9.1,0-18.1-1.3-26.8-3.9c-1.3-0.4-2.2-1.6-2.2-2.9V41z M9.5,64h8v-4h-8v-3h8v-4h-8V39.8l8.8-8.8h11.2v36h-20V64z M42,111.5   c0,5.8-4.7,10.5-10.5,10.5S21,117.3,21,111.5c0-5.8,4.7-10.5,10.5-10.5S42,105.7,42,111.5z M110.5,77h-77v-6v-2V41l4,0v19.3   c0,3.1,2.1,5.8,5,6.7c9.1,2.7,18.5,4,28,4h2.8c9,0,17.9-1.2,26.5-3.6l1.6-0.4c3-0.8,5.1-3.6,5.1-6.7V41l4,0V77z" fill="orange"/><circle cx="31.5" cy="111.5" fill="orange" r="3"/></g></svg>